<svg xmlns="http://www.w3.org/2000/svg">
<defs>
<marker id="a" refX="0" refY="0" orient="auto" overflow="visible"><path transform="matrix(-.6 0 0 -.6 3 0)" d="M8.719 4.034L-2.207.016 8.719-4.002c-1.746 2.372-1.736 5.618 0 8.036z" font-size="12" fill-rule="evenodd" stroke-width=".625" stroke-linejoin="round"/></marker>
</defs>
<symbol id="antenna" viewBox="0 0 512 512"><g stroke-linecap="round" fill="none" stroke-width="1.731" stroke="#030303"><path d="M256 295.11L71.111 64H440.89z" stroke-linejoin="round" stroke-width="16.002125640000003"/><path d="M256 479.999v-416" stroke-width="16.002125640000003"/></g></symbol>
<symbol id="battery" viewBox="0 0 100 100"><g stroke-width="3.125"><g fill="none" stroke="#3b4449" stroke-linecap="round"><path d="M384 179.2H128M256 176.64V0M320 230.4H192M320 332.8H192M384 281.6H128M256 335.36V512" stroke-width="16"/></g><path d="M176 84.24h-6.39V112h-27.525v6.39h27.525v27.76H176v-27.76h27.525V112H176V84.24" fill="#3b4449"/></g></symbol>
<symbol id="compliance-ce" viewBox="0 0 100 100"><path d="M211.06 93a182.176 163 0 1 0 0 326m326-326a182.176 163 0 1 0 0 326M364.473 256h134.236" fill="none" stroke="#000" stroke-width="57.529"/></symbol>
<symbol id="compliance-weee" viewBox="0 0 100 100"><path d="M237.658 41.633h-30.014v4.718h30.014v-4.718zm-85.759 14.648c-4.643 2.523-8.253 5.604-10.246 9.364H151.9V56.28zm155.83 44.9l-11.308 11.517-.546 5.858h13.57V101.18h-1.717zm-102.05 92.026l-58.423-61.628 9.577 111.335 48.845-49.707zm11.555.152l55.852 58.822 11.59-124.372h-1.142v-1.985l-66.3 67.535zm-71.106-74.886l65.353 68.828 38.657-39.336h-54.5v-20.582h63.032v11.899l24.864-25.302V91.928h4.487l1.45-15.565H142.506l3.622 42.11zm157.786 178.36c.27 1.607.41 3.258.41 4.942 0 16.37-13.27 29.64-29.64 29.64-11.366 0-21.24-6.4-26.212-15.791h-72.481v15.483h-19.07v-15.523c-2.233-.314-4.375-2.437-4.566-4.664l-4.072-47.326L47.261 366.495l-6.039-5.934 106.113-107.983-11.439-132.981L34.947 13.109V1.38l99.823 105.131-2.63-30.576h-12.397v-10.29h10.908c.188-.578.436-1.254.763-2.009C135.041 55.254 142.531 49.262 151.9 45v-6.801h17.585v1.052c9.161-2.106 18.847-3.25 27.87-3.832v-4.075h50.595v25.299h-50.595V45.955c-8.963.67-18.856 1.894-27.87 4.038v15.653h119.582c-4.693-11.073-22.94-16.258-41.118-18.609V36.56c18.245 2.261 36.998 7.363 46.412 18.384a13.698 13.698 0 0 1 10.797-5.252c7.578 0 13.721 6.142 13.721 13.72s-6.143 13.722-13.72 13.722c-1.888 0-3.686-.381-5.322-1.07l-1.48 15.864h6.85L395.541 0v11.733l-78.729 80.194h1.64v35.882h-23.439l-12.515 134.284 92.578 97.5-6.142 5.83-65.021-68.59zm-58.87 4.942c0-15.194 11.432-27.718 26.164-29.438l.849-9.109-60.629-63.955-53.65 54.647 4.423 51.414h83.054a30.1 30.1 0 0 1-.211-3.559zm14.225 0c0 8.513 6.9 15.415 15.415 15.415 8.513 0 15.414-6.902 15.414-15.415 0-8.514-6.901-15.415-15.414-15.415-8.514 0-15.415 6.901-15.415 15.415zm5.404 0c0-5.529 4.482-10.011 10.01-10.011 5.53 0 10.012 4.482 10.012 10.011 0 5.529-4.483 10.01-10.011 10.01-5.529 0-10.011-4.481-10.011-10.01zM64 439.398h298.152V512H64v-72.602z"/></symbol>
<symbol id="crystal" viewBox="0 0 512 512"><g stroke="#3b4449" stroke-linecap="round" stroke-width="2.679" stroke-miterlimit="6" fill="none"><path d="M144.003 311.998h224v-112h-224v112" stroke-linejoin="round" stroke-width="16.00255107"/><path d="M256.003 143.998v-112M256.003 367.998v112M349.337 143.998H162.67M349.337 367.998H162.67" stroke-width="16.00255107"/></g></symbol>
<symbol id="fuse" viewBox="0 0 100 100"><g transform="translate(12.522 -18.432) scale(9.73913)"><path d="M41.531 25c.101-1.847-2.446-2.901-3.68-1.525-1.377 1.235-.323 3.782 1.524 3.681 1.16.025 2.181-.996 2.156-2.156zM12.781 25c.101-1.847-2.446-2.901-3.68-1.525-1.377 1.235-.323 3.782 1.524 3.681 1.16.025 2.181-.996 2.156-2.156z" fill="none" stroke="#3b4449" stroke-width="1.027" stroke-linecap="round" stroke-linejoin="round"/><path d="M35.063 25c-1.207 1.908-2.442 4.21-4.732 4.927-2.117.333-3.388-1.813-4.383-3.335-1.453-2.18-2.416-4.904-4.745-6.324-1.933-.893-3.65.948-4.702 2.35A24.023 24.023 0 0 0 14.937 25" fill="none" stroke="#3b4449" stroke-width="1.027" stroke-linecap="round" stroke-linejoin="round" stroke-miterlimit="3.8"/><path d="M14.938 25H12.78M37.219 25h-2.157M2 25h6.44M48 25h-6.44" fill="none" stroke="#3b4449" stroke-width="1.027" stroke-linecap="round" stroke-linejoin="round"/></g></symbol>
<symbol id="logo-dremel" viewBox="0 0 100 100"><path d="M0 64.092V448h289.326c96.68-8.247 120.83-42.71 130.852-132.526V198.85C411.73 123.23 406.652 64.092 289.326 64.092zm464.26 0V448h97.651V320.496h153.173c39.83 4.754 43.245 41.46 43.245 81.748 0 0-1.027 39.573 9.765 45.756h94.86s-7.878-21.014-10.322-65.287c1.506-63.757-14.955-79.872-41.85-98.487l.557-3.349c23.928-13.793 43.145-29.953 45.478-78.4v-24.272c0-52.341-5.547-114.113-98.209-114.113zm446.962 0V448h353.497v-83.7h-256.125v-78.958h237.152v-70.588h-237.152v-75.052h250.266v-75.61zm398.416 0V448h92.35V170.113h5.58L1539.536 448h73.099l127.783-277.887h5.58V448h94.86V64.092h-154.846L1575.527 311.01h-2.79L1456.393 64.092zm593.996 0V448h353.497v-83.7h-256.125v-78.958h237.153v-70.588h-237.153v-75.052h250.266v-75.61zm395.347 0V448h316.668v-83.7h-219.296V64.091zM95.698 139.702H265.61c47.777 0 58.033 34.396 58.033 89.002v51.894c0 54.607-12.756 83.701-58.033 83.701H95.698zm466.213 0h152.336c30.734 0 46.035 6.25 46.035 40.177v12.834c0 27.565-11.037 48.546-37.386 48.546H561.91z" fill="#005294"/></symbol>
<symbol id="logo-hirose" viewBox="0 0 100 100"><path d="M764.82 140.056V64H611.857c-20.763 0-64.217 28.857-64.217 64.127 0 42.243 0 0 0 0v85.563c0 31.413 31.458 66.055 67.087 66.055h73.7v91.863H567.596L461.741 266.18c32.512-21.638 33.005-51.75 33.005-51.75v-75.07c0-57.826-52.871-75.36-75.136-75.36H238.754v141.147h-90.137V64H32v75.764h39.597v231.844H32V448h116.617V280.91h90.137V448H354.72v-76.392h-40.226V139.764h103.86v64.934h-51.078v76.392l167 165.632H692.71c35.315 0 73.23-32.49 73.23-77.984h.135v-87.917h-.269c0-44.26-38.655-76.526-77.849-76.526h-62.782v-64.24H764.82"/></symbol>
<symbol id="logo-jst" viewBox="0 0 100 100"><path d="M941.686 64l-12.57 62.974h-77.431L787.4 448H670.748l64.336-321.026h-77.711L669.988 64h271.698M598.64 64c30.45 0 50.358 24.632 44.376 55.089l-16.209 75.973H513.912l11.692-58.3c1.468-7.231-.216-11.907-13.215-11.907-17.783 0-22.024.98-26.431 22.457-4.895 23.714 5.438 39.429 13.381 51.395 7.94 11.96 28.332 30.072 52.535 57.262 17.397 19.576 50.842 49.545 43.343 87.178l-7.78 36.109C580.043 417.27 543.22 448 505.268 448H363.76c-30.455 0-50.305-24.638-44.321-55.201l16.15-75.972h112.901l-11.64 58.35c-1.468 7.234.216 11.965 13.218 11.965 17.725 0 22.02-.976 26.425-22.406 4.843-23.768-5.438-39.534-13.375-51.447-7.995-12.018-28.39-30.075-52.535-57.32-17.403-19.575-50.903-49.485-43.397-87.12l7.779-36.166C382.359 94.673 419.178 64 457.136 64H598.64M359.842 64l-65.477 327.6c-6.142 31.925-41.656 56.4-84.562 56.4H73.628c-24.31 0-43.995-19.69-43.995-44.11 0-2.88.215-5.872.868-8.644l15.553-78.638h116.598l-11.311 57.256c-1.033 4.632-1.25 15.4 8.319 15.4 12.018 0 19.035-2.828 22.08-18.167L243.192 64h116.651"/></symbol>
<symbol id="logo-kreg" viewBox="0 0 100 100"><path d="M846.846 448.994c-.216-1.46.36-4.366 2.004-10.105 2.838-9.911 11.976-46.976 12.734-51.65.371-2.293.852-5.553 1.067-7.244l.392-3.074 76.2.083c59.565.066 76.788-.09 78.894-.722 3.652-1.094 5.434-3.062 6.451-7.123 2.406-9.602 5.429-19.133 7.13-22.48 1.047-2.062 1.905-3.927 1.905-4.145 0-.218-3.249-.209-7.218.02-3.97.228-29.78.43-57.357.45-55.738.037-53.766.172-62.687-4.32-8.626-4.343-14.674-12.401-16.77-22.342-1.692-8.02-1.055-18.565 2.52-41.705 6.509-42.138 16.944-79.848 28.402-102.639 3.5-6.963 4.237-7.983 10.774-14.919 14.61-15.5 34.233-25.221 61.516-30.473 6.948-1.337 8.855-1.38 72.513-1.604 44.913-.158 66.416-.015 68.693.458 8.79 1.825 16.922 8.09 19.522 15.04 1.675 4.478 2.351 12.139 1.504 17.045-.51 2.952-7.58 31.084-12.255 48.762-.7 2.646-3.892 15.061-7.094 27.589a21489.931 21489.931 0 0 1-15.993 62.235c-1.779 6.881-7.418 28.824-12.532 48.762l-11.931 46.516c-3.317 12.931-4.543 16.008-9.09 22.81-10.789 16.14-30.022 27.586-53.159 31.636-4.554.797-19.17 1.02-88.559 1.352-67.132.32-84.458.576-90.145 1.327-3.872.51-7.112.932-7.2.935-.089 0-.192-.212-.232-.476zm169.94-166.496c.744-.794 1.683-2.31 2.086-3.368.6-1.579 6.015-27.06 9.951-46.837.492-2.47 1.918-9.39 3.168-15.376 2.651-12.694 2.903-17.678.99-19.592-1.619-1.618-2.24-1.61-3.906.057-2.235 2.235-2.945 4.777-7.266 26.013a22952.98 22952.98 0 0 1-7.458 36.487c-3.341 16.253-3.727 20.897-1.919 23.076 1.155 1.392 2.78 1.22 4.355-.46zM535.42 428.291c-99.996-3.595-187.28-12.721-270.435-28.275-10.685-1.999-43.602-8.918-46.357-9.745-.265-.08 5.076-.148 11.87-.153 13.426-.018 18.304-.706 22.693-3.235 1.453-.838 2.849-1.316 3.101-1.064.252.252.377.17.277-.183-.1-.353.74-2.065 1.865-3.804 1.222-1.89 2.213-4.42 2.46-6.29.313-2.356.643-3.042 1.337-2.775.507.194 5.042 1.552 10.078 3.018 5.036 1.465 9.583 2.982 10.105 3.37.522.389 2.01 2.37 3.306 4.403 4.188 6.571 3.536 6.418 25.423 5.99l18.89-.37 10.623 2.512c44.09 10.425 99.484 18.694 156.91 23.426 85.965 7.083 187.46 7.08 286.154 0 14.168-1.018 52.136-4.396 59.491-5.293l4.314-.526-.393 1.648c-.864 3.63-.845 3.622-11.57 4.777-60.108 6.472-91.374 8.884-155.46 11.997-17.95.871-124.679 1.3-144.682.58zm-404.403-45.325c-2.223-1.103-3.977-3.733-3.977-5.962 0-.725 1.176-5.575 2.613-10.779 1.436-5.204 4.59-16.824 7.007-25.822 2.417-8.999 8.776-32.53 14.131-52.29 5.355-19.762 12.425-45.891 15.711-58.066 3.287-12.174 12.23-45.233 19.874-73.463 7.645-28.23 14.284-52.772 14.753-54.536 5.97-22.429 8.319-30.462 9.432-32.262.73-1.18 2.518-2.922 3.975-3.87l2.65-1.723L274.286 64c40.333-.136 57.818.016 59.54.516 2.514.732 4.934 3.658 4.938 5.974.002.967-11.133 42.57-26.377 98.551-3.403 12.499-3.893 16.251-2.328 17.817.851.85 1.177.846 2.895-.042 3.633-1.879 6.564-7.138 15.354-27.55a93636.066 93636.066 0 0 0 23.09-53.69c7.96-18.526 15.17-34.615 16.02-35.754.851-1.14 2.91-2.872 4.573-3.85l3.026-1.779h57.837c55.976 0 57.881.04 59.188 1.222 2.782 2.518 2.13 4.384-10.59 30.284a28752.628 28752.628 0 0 0-24.468 49.978l-20.359 41.704c-6.017 12.326-8.45 16.656-10.507 18.7-4.723 4.693-5.835 5.014-33.136 9.567-15.507 2.586-22.337 4.453-22.658 6.193-.352 1.907 3.57 2.871 22.778 5.602 10.168 1.445 19.719 3.08 21.224 3.635 3.61 1.33 6.032 4.53 6.404 8.46.157 1.661-.175 11.827-.739 22.59-.564 10.762-1.179 23.033-1.367 27.267-.189 4.235-.467 9.432-.619 11.55-.152 2.117-.446 8.324-.653 13.794-.208 5.47-.496 11.388-.641 13.153-.145 1.764-.737 13.313-1.315 25.664-1.171 25.003-1.284 25.575-5.625 28.448l-2.58 1.707-55.224.171c-57.905.18-57.347.204-60.52-2.633-2.758-2.468-2.75-3.778.228-36.147a30550.45 30550.45 0 0 0 4.754-52.178c1.062-11.821 2.386-26.113 2.942-31.76 1.797-18.238-.182-24.003-6.103-17.779-3.337 3.508-5.054 8.555-11.615 34.14-3.212 12.528-7.148 27.83-8.746 34.006-8.046 31.095-10.13 39.206-13.157 51.205-1.89 7.496-3.866 13.89-4.65 15.054-.75 1.113-2.612 2.9-4.137 3.972l-2.772 1.949-57.529.153c-52.204.14-57.725.056-59.647-.898zm299.702-2.745c-2.374-1.456-3.41-3.122-3.41-5.487 0-.926 4.353-17.763 9.673-37.416l12.886-47.602c1.768-6.528 4.615-17.066 6.327-23.418 1.713-6.352 8.621-31.904 15.352-56.782 6.73-24.878 13.716-50.719 15.523-57.423 1.806-6.705 3.67-12.95 4.14-13.879 1.014-2 4.337-4.914 6.64-5.822 1.702-.67 95.535-.754 97.276-.086 1.243.477 3.492 4.255 3.492 5.866 0 .73-1.171 5.685-2.603 11.012-2.968 11.046-3.16 14.964-.753 15.306 2.672.379 8.816-6.759 14.233-16.533 5.65-10.196 7.351-12.279 11.783-14.428 3.31-1.605 3.408-1.612 22.64-1.702 12.758-.06 19.753.145 20.607.602.712.38 1.806 1.771 2.432 3.091 1.272 2.68 1.29 2.565-2.853 17.856-15.42 56.903-14.201 53.277-19.09 56.758l-2.285 1.627-23.82.422c-13.101.232-25.637.717-27.858 1.078-7.135 1.16-12.78 5.731-15.447 12.51-.988 2.512-21.997 79.439-35.424 129.71-5.51 20.63-5.395 20.362-10.169 23.738l-2.721 1.925-47.263.164c-45.917.16-47.322.129-49.308-1.088zm246.816-.752c-14.166-.559-21.517-2.585-31.143-8.585-9.387-5.85-16.675-16.39-19.169-27.72-1.322-6.004-1.351-21.057-.056-28.425 2.37-13.483 19.908-78.364 28.81-106.578 5.78-18.322 13.294-35.142 20.628-46.173 6.365-9.574 18.242-20.213 26.742-23.954 4.433-1.952 27.27-7.2 36.523-8.393 9.283-1.198 26.19-2.621 42.566-3.584 11.543-.678 30.176-.497 41.249.401 29.388 2.384 41.993 4.138 49.974 6.955 4.135 1.46 10.124 5.535 14.619 9.946 4.714 4.628 7.936 10.292 10.094 17.745 1.306 4.51 1.47 6.411 1.42 16.332-.055 10.979-.131 11.583-3.427 27.268-6.199 29.496-12.565 52.943-15.596 57.44-.811 1.204-2.89 3.064-4.62 4.134l-3.145 1.945-57.153.32c-63.601.357-58.942.005-63.127 4.771-2.33 2.654-5.12 10.93-5.637 16.723-.395 4.424.767 7.355 3.797 9.578 1.79 1.313 2.454 1.333 56.14 1.65 58.63.346 56.222.193 57.813 3.685.378.83.687 2.062.687 2.738 0 1.17-4.586 18.773-12.928 49.626-2.086 7.713-4.202 14.816-4.703 15.784-1.349 2.609-5.148 5.686-7.538 6.106-2.9.51-150.534.75-162.82.265zm88.642-141.38c.756-.87 1.665-1.403 2.02-1.184.353.219.452.09.219-.289-.234-.378-.146-1.418.194-2.313.34-.894 1.766-7.198 3.17-14.008 1.403-6.81 3.003-14.548 3.555-17.195.553-2.647 1.001-5.823.996-7.058-.02-5.09-3.24-7.394-5.635-4.031-1.747 2.454-2.791 6.348-6.24 23.28-3.28 16.102-3.694 21.125-1.9 23.107 1.489 1.645 1.957 1.605 3.62-.309zm-656.14 117.136c-17.628-6.416-28.513-11.128-42.987-18.609-10.765-5.565-20.084-11.112-21.002-12.502-.26-.392-.476-.473-.481-.18-.013.675-9.44-5.85-14.12-9.772a993.705 993.705 0 0 0-5.084-4.235c-4.06-3.338-11.045-10.79-14.737-15.72-5.027-6.711-8.616-14.001-10.417-21.153-1.948-7.733-1.505-18.562 1.073-26.262 2.005-5.988 9.181-18.448 10.467-18.173.453.097.633-.131.4-.508-1.15-1.86 16.23-18.163 28.291-26.537 12.088-8.393 29.247-18.128 30.54-17.328.42.258.545.159.3-.237-.805-1.303 25.435-13.195 47.061-21.328 20.673-7.775 61.136-20.564 62.079-19.62.153.153-.458 2.825-1.357 5.938-.9 3.113-2.626 9.269-3.837 13.68-1.21 4.411-3.277 11.918-4.594 16.682l-2.394 8.661-4.264 2.43c-16.241 9.258-34.057 23.496-42.896 34.283-1.232 1.503-2.54 2.547-2.908 2.32-.368-.228-.498-.138-.29.2.21.337-.928 2.475-2.526 4.75-2.414 3.437-7.279 12.586-7.279 13.69 0 .17-.33 1.121-.732 2.115-1.822 4.493-2.27 15.303-.913 22.001 1.818 8.973 6.783 19.254 12.973 26.862 1.534 1.886 2.623 3.697 2.42 4.026-.203.329-.097.518.236.421.333-.096 3.34 2.464 6.684 5.69l6.078 5.865-5.58 19.478a12076.87 12076.87 0 0 1-6.654 23.167c-.778 2.671-1.379 3.683-2.179 3.665-.607-.018-5.724-1.706-11.37-3.76zm1000.579-.102c0-.373.327-1.977.727-3.564l.726-2.886 10.983-5.376c6.04-2.957 14.272-7.263 18.292-9.57 4.021-2.306 7.63-4.011 8.02-3.789.391.223.51.182.264-.09-.354-.394 8.922-7.163 14.111-10.298.585-.352 1.358-.95 1.72-1.327.36-.378 3.456-3.06 6.878-5.962 11.465-9.72 20.8-22.64 24.321-33.664 3.693-11.56 2.87-25.317-2.108-35.259-.669-1.335-1.014-2.779-.768-3.208.246-.429.217-.57-.066-.316-.283.256-1.088-.61-1.789-1.924-2.56-4.796-10.17-14.186-15.994-19.735-3.283-3.127-5.89-5.94-5.793-6.248.096-.31-.086-.4-.407-.201-.321.198-1.988-.758-3.705-2.125-1.717-1.366-5.057-3.782-7.423-5.368-2.365-1.586-4.097-3.11-3.85-3.385.249-.275.099-.298-.332-.05-.431.248-1.525-.036-2.432-.63-1.504-.985-1.61-1.336-1.212-4.036.84-5.707.32-5.73 10.208.469 12.523 7.85 21.184 14.596 29.809 23.218 11.605 11.601 18.46 22.709 21.286 34.495 2.36 9.84.87 21.337-4.058 31.324-2.964 6.004-6.417 11.16-7.166 10.697-.339-.21-.436-.09-.216.267.505.817-3.955 6.102-4.74 5.616-.319-.197-.435.02-.258.482.441 1.15-13.522 14.086-19.978 18.508-11.96 8.196-15.91 10.747-22.705 14.668-8.995 5.192-22.986 12.133-33.901 16.82-7.703 3.309-8.444 3.524-8.444 2.447zm-782.12-225.326c-.013-1.295 4.632-20.004 5.096-20.529.555-.627 10.853-2.079 11.334-1.598.204.204-1.747 5.017-4.337 10.696l-4.707 10.324-3.164.955c-3.846 1.16-4.213 1.173-4.223.152zm627.173-3.4c-10.947-2.336-47.412-8.32-68.01-11.16-56.779-7.832-109.02-12.545-172.59-15.572-23.56-1.122-121.31-1.12-143.078.002-34.717 1.79-57.028 3.363-80.393 5.668-5.752.568-10.587.903-10.744.746-.158-.158.564-2.043 1.604-4.19 1.04-2.147 2.313-4.912 2.827-6.145.923-2.208 1.003-2.245 5.646-2.628 19.303-1.592 128.285-2.222 173.772-1.006 116.839 3.125 213.49 12.526 287.116 27.926a28748.25 28748.25 0 0 0 15.72 3.284c2.646.551 4.9 1.083 5.009 1.182.282.257-8.438 3.541-9.193 3.463-.346-.035-3.804-.742-7.686-1.57z"/></symbol>
<symbol id="logo-microchip" viewBox="0 0 100 100"><path d="M242.38 367.092s16.148 28.383 34.418 0l35.397-51.546-104.234-166.71s-16.149-22.347-35.397 0l-36.376 50.405 106.191 167.851zM256.57 448c54.646 0 104.235-20.227 140.61-52.525L272.72 200.383l38.496-52.688c16.15-21.206 33.277 0 33.277 0l106.355 167.851c5.056-14.191 7.992-30.34 8.971-45.51L339.436 80c-25.284-10.113-53.503-16.149-82.865-16.149-105.865 0-204.39 81.234-204.39 192.156 0 17.128 2.936 34.255 7.014 49.426l59.702-81.887 41.596 63.78c9.95 15.17 0 28.22 0 28.22l-52.688 72.752C147.606 428.099 200.947 448 256.571 448" fill-rule="evenodd"/></symbol>
<symbol id="logo-molex" viewBox="0 0 100 100"><g fill="#000"><path d="M254.451 64c-86.08 0-158.912 56.684-183.3 134.723h15.555c23.86-69.8 89.904-119.959 167.745-119.959 77.841 0 143.885 50.159 167.745 119.959h15.555C413.429 120.683 340.53 64 254.45 64M422.196 313.277c-23.86 69.8-89.904 119.959-167.745 119.959-77.841 0-143.885-50.159-167.745-119.959H71.151C95.54 391.382 168.371 448 254.451 448c86.08 0 158.978-56.618 183.3-134.723h-15.555"/><path d="M274.95 181.125h28.605v112.84H274.95v-112.84zM219.123 228.976c10.48-.593 17.137 10.744 17.137 25.706 0 19.312-6.658 27.683-17.533 27.683-10.282 0-17.466-8.371-17.466-27.683 0-11.469 4.086-25.706 17.862-25.706zm-45.413 27.947c0 27.617 19.97 41.788 45.808 41.788 25.837 0 45.874-13.842 45.874-43.436 0-25.178-17.532-41.92-46.006-41.92-27.221 0-45.676 15.555-45.676 43.568zM361.096 278.542c-8.173 0-15.292-6.328-15.292-15.819h58.793c.462-29.133-16.873-49.83-45.61-49.83-24.849 0-43.897 17.006-43.897 43.305 0 27.221 19.18 41.985 44.028 41.985 18.06 0 37.636-6.59 42.975-26.628H372.63c-2.24 4.68-6.657 6.987-11.534 6.987zm12.72-32.231h-28.012c-.066-20.828 28.276-21.092 28.013 0M440.255 215.2c3.89 6.13 7.712 13.315 11.93 19.115l13.512-19.114h27.222c-7.91 12.457-18.06 23.992-25.64 36.449 0 0 18.39 29.66 26.101 42.315h-30.583c-5.932-9.623-11.93-21.224-14.5-24.915l-15.49 24.915H405.06c9.82-14.698 28.276-42.183 28.276-42.183L408.486 215.2h31.77M103.712 294.03v-49.565c0-7.711 6.261-13.973 13.973-13.973 7.711 0 13.973 6.262 13.973 13.973v49.566l27.42-.066v-59.057c-.396-5.536-5.867-13.775-12.458-17.4-8.832-4.219-28.606-9.096-44.952 8.898-5.273-5.603-11.864-9.887-19.048-11.864-12.128-2.57-24.849.066-33.747 9.293-1.186.989-2.175 3.428-2.109 1.384v-10.018H18.62v78.764h28.144V244.4c0-7.712 6.328-13.974 14.04-13.974 7.71 0 13.973 6.262 13.973 13.974v49.63h28.935"/></g></symbol>
<symbol id="logo-stmicro" viewBox="0 0 100 100"><path d="M488.359 190.044h98.67L475.659 448H377.06L488.36 190.044"/><path d="M616.825 120.308h-400.49c-7.61 0-11.978.456-19.407 2.159-7.206 1.641-10.054 2.574-17.908 6.242-10.773 5.037-16.692 8.95-25.032 17.462-8.2 8.361-9.334 10.51-13.743 18.263-3.83 6.74-5.625 10.844-7.854 18.273-2.868 9.546-3.72 15.323-3.7 25.296.021 9.486.862 14.958 3.457 24.08 1.743 6.161 3 9.607 5.888 15.313 2.949 5.827 5.057 8.928 9.08 14.067 3.892 4.986 6.355 7.63 11.037 11.857l76.577 73.82c1.388 1.318 3.233 3.963 4.165 6.628 1.42 4.075 1.591 5.321 1.146 8.726-.507 3.841-1.125 5.372-4.075 9.03-1.064 1.338-3.871 3.335-5.219 4.085-1.55.871-2.463 1.347-4.175 1.804-1.55.405-2.473.516-4.064.496H25.633L160.687 64.01l480.4-.01-24.262 56.308"/><path d="M415.258 190.044L304 448h-49.73s-3.314-.8-3.608-2.493c-.304-1.743 2.695-3.618 2.695-3.618 8.382-3.111 12.84-5.858 20.006-11.24 8.098-6.07 12.374-10.164 18.445-18.292 6.334-8.493 9.253-14.006 12.73-24.04 2.989-8.644 4.124-13.864 4.671-23.005.598-9.912-.101-15.678-2.34-25.347-2.342-10.124-4.45-15.83-9.609-24.83-3.76-6.577-6.334-10.094-11.431-15.688l-81.837-78.928c-1.277-1.277-1.926-2.108-2.858-3.659-1.348-2.24-2.078-3.669-2.422-6.273-.183-1.409-.112-2.24 0-3.659.223-2.716.476-4.327 1.641-6.79 2.382-5.037 5.605-7.55 10.915-9.151 1.916-.578 5.068-.76 5.068-.76l198.922-.183"/></symbol>
<symbol id="logo-ti" viewBox="0 0 100 100"><path d="M357.083 140.091h11.56l11.558.428 11.563.868 10.71 1.28 9.843.852 4.708.432 4.287.852 3.852.867 3.439.852 5.987 1.712-1.276 19.702-.875 16.702v6.851l.44 3.428.435 3.42 1.277 5.15 1.283 4.696 1.277 4.295 1.287 1.708.868 2.14 1.708 3.004 2.14 2.564 2.143 1.711 1.708 2.152 2.152 1.28 1.272.855 3.003 1.288.864.418v2.575l.848 7.275.436 5.568.42 5.147v6.423l-.42 7.283-.868 9.419-.416 8.56-1.288 7.278-1.288 5.984-1.287 5.159-.417 3.423-.856 2.988-10.714 3.86-7.275 2.579-8.564 3.408-4.715 2.148-4.268 2.147-10.29 5.147-10.279 5.984-5.143 3.424-5.992 3.851-4.28 3.008-3.858 3.423-3.848 3.424-3.867 3.848-3.84 3.443-3.436 4.264-3.412 3.86-3.019 3.851-2.995 4.284-2.56 4.295-1.72 4.268-1.288 2.575-.848 2.147-1.28 4.7-1.295 4.708-.845 4.7V410.312l.425 5.572.848 5.147.867 4.696.848 4.726 1.28 3.856 1.288 4.283 1.72 3.432-1.72.832-2.568 1.303-3.42 1.272-1.72.864h-2.563l-4.711 1.288h-2.996l-3.424.417H317.248l-2.14-.417h-2.563l-4.295-1.288-4.7-.864-5.147-2.128-2.144-.852-2.147-.86-4.7-2.59-4.712-3.417-4.711-3.003-4.284-3.84-4.283-3.867-4.28-4.283-3.855-4.3-3.852-4.695-3.86-5.132-1.715-2.576-1.7-2.564-3.44-5.578-3.85-7.272-3.845-7.722-6.866-14.566-6.42-14.559-2.988-6.84-3.427-6.002-3.424-5.969-1.288-2.996-2.151-2.575-3.416-4.287-1.288-2.136-2.143-2.148-1.72-1.7-2.14-1.72-1.712-.863-2.564-1.272-1.711-1.292-2.144-.428h-2.58l-2.135-.412-2.144.412H184.904l-2.131.428-1.288.857-1.708.863-1.731.85-1.273.439-2.563 2.556-2.568 2.147-1.731 2.576-2.549 2.136-1.723 2.568-2.144 2.162-2.132 2.117-2.147 2.148-1.277.874-1.287.838-3 1.283-1.276.432-1.72.423h-5.567l-2.148-.423h-1.715l-2.125-.86-1.72-.86-1.715-1.28-3.424-2.576-1.72-1.275-1.707-1.716-1.716-1.292-1.288-1.716-2.564-3.844-1.287-2.136-1.288-2.143-2.14-4.291-2.575-4.276-3.844-8.563-6.855-14.99-.86-2.148-1.712-2.14-2.56-4.29-3.431-3.852-3.416-3.848-7.719-7.287-4.287-3.424-3.852-3.848-3.855-3.851-3.436-4.291-3.412-3.848-3.007-4.727-2.564-5.128-1.288-2.996-1.287-2.563-.849-3.015-.431-3.432-.856-3.423-.436-3.852h104.923V65.165h98.512v62.081l1.7 1.288 1.716 1.287L265 131.11l3 1.284 2.991.848 3.856 1.288 3.42.856 4.294.848-11.142 49.674H240.15l-10.707 44.123h32.132l-11.563 53.969-1.708 8.135-.44 4.711-.847 5.132v10.283l.42 4.715.428 2.143.44 2.136 1.283 3.424 1.273 3.015 1.727 2.977 1.712 2.575 2.128 2.992 1.716 2.14 2.583 2.147 2.564 1.716 1.715 1.704 3.424.863 2.568 1.289 3.007 1.277 2.98.428 3.008.429 3.423.423h8.132l5.143-.423 4.711-.429 5.144-.852 8.983-1.715 4.295-1.289 3.42-.844 3.855-1.288 3.424-.875 4.711-1.704 4.716-2.14 9.847-37.68-1.28.432-2.144.424h-4.704l-4.72.417-4.275.428h-2.147l-1.716-.428-1.272-.417h-.432l-.428-.424-.428-.431-.86-.429-.428-1.288-.848-.852-.432-2.144-.431-1.704.431-1.291.432-4.3 13.267-57.377h31.268l10.271-44.118H346.81l10.275-45.819zm-60.392 17.574h38.54l-31.681 140.46h-37.264l30.405-140.46zm26.553-53.97h2.579l1.708.425 2.132.42 1.723.443 1.716.845 1.708 1.287 1.712.853 1.28 1.28 2.564 3.007 1.295 1.712.849 1.723.435 1.704.428 2.572.417 1.716V125.965l-.417 2.144-.428 1.711-.435 2.136-.849 1.716-1.295 1.273-.845 2.15-1.287.864-1.288 1.712-1.712.848-1.712.868-1.715.848-1.708.436-2.14.412-2.136.436h-4.716l-1.715-.436-2.144-.412-1.72-.436-2.135-.848-1.716-.868-1.284-.848-1.716-1.276-1.283-1.3-1.277-1.707-.86-1.716-.855-1.276-.432-2.576-.848-1.711-.425-2.144V121.68l.425-1.715.848-2.136.432-1.716.856-1.723.86-2.132 1.715-1.288.845-1.273 1.715-1.727 1.708-.852 1.72-1.287 1.704-.845 2.151-.443 1.712-.42 2.136-.425h1.72v-.003z" fill-rule="evenodd"/></symbol>
<symbol id="mosfet-n" viewBox="0 0 512 512"><path d="M353.248 25.809H368.1V40.66h-14.853zM353.248 471.397H368.1v14.853h-14.853zM56.189 248.603h14.853v14.853H56.189z"/><g stroke="#000"><g stroke-width="2" transform="translate(-437.82 -1509.02) scale(7.42647)"><ellipse transform="translate(-62.48 -92.33)" cx="160" cy="330" rx="24.814" ry="24.814" fill="none"/><g stroke-miterlimit="10"><g stroke-linecap="square"><path d="M107.52 208.67v14M107.52 256.67v10"/></g><g fill="none" stroke-linejoin="round" stroke-linecap="round"><path d="M107.52 222.67h-15M107.52 252.67h-15M92.52 232.67v10M92.52 247.67v10M92.52 227.67v-10M99.52 237.67h8v19"/></g></g><ellipse transform="translate(-62.48 -92.33)" cx="170" cy="345" rx="2" ry="2" fill="none"/><g stroke-miterlimit="10"><path d="M68.52 237.67h15" stroke-linecap="square"/><path d="M84.52 222.67v30" fill="none" stroke-linecap="round"/></g></g><path d="M301.262 226.323l-44.559 29.706 44.56 29.706z" stroke-miterlimit="10" stroke-linejoin="round" stroke-linecap="round" stroke-width="7.42647"/></g></symbol>
<symbol id="resistor" viewBox="0 0 100 100"><g transform="matrix(11.13043 0 0 11.13043 -22.26 -22.26)"><path stroke-miterlimit="6" d="M25 12.062V2M25 37.938V48" fill="none" stroke="#000" stroke-width="1.7967600000000001"/><path stroke-miterlimit="6" d="M25 12.062l-5.031 2.157L30.03 18.53 19.97 22.844l10.062 4.312L19.97 31.47 30.03 35.78 25 37.938" fill="none" stroke="#000" stroke-width="1.7967600000000001" stroke-linecap="round" stroke-linejoin="round"/></g></symbol>
<symbol id="resistor2" viewBox="0 0 100 100"><g stroke-width="12.129" stroke-miterlimit="10" pointer-events="none" stroke="#000" stroke-linecap="round" stroke-linejoin="round"><path d="M414.897 256l-26.483 61.793L361.93 256M361.931 256l-26.483-61.793L308.966 256M308.966 256l-26.483 61.793L256 256M256 256l-26.483-61.793L203.034 256M203.034 256l-26.482 61.793L150.069 256M150.069 256l-26.483-61.793L97.103 256" fill="none" stroke-width="18.000163739999998"/><path d="M512 256h-96M96 256H0" stroke-width="18.000163739999998"/></g></symbol>
<symbol id="resistor2_cleaned" viewBox="0 0 512 512"><g stroke-width="12.13" stroke-miterlimit="10" stroke="#000" stroke-linejoin="round" stroke-linecap="round"><g fill="none"><path d="M414.897 256.004l-26.483 61.793-26.483-61.793M361.93 256.004l-26.482-61.793-26.483 61.793M308.965 256.004l-26.483 61.793-26.483-61.793M255.999 256.004l-26.483-61.793-26.483 61.793M203.033 256.004l-26.484 61.793-26.483-61.793M150.066 256.004l-26.483-61.793L97.1 256.004" stroke-width="18.0016478"/></g><path d="M511.999 256.004h-96.004M96.002 256.004H-.002" stroke-width="18.0016478"/></g></symbol>
<symbol id="transistor-npn" viewBox="0 0 100 100"><g stroke-width="3.516" fill="none" stroke="#000"><path d="M101.52 54.542c0 21.06-19.447 38.133-43.436 38.133-23.99 0-43.437-17.073-43.437-38.133 0-21.06 19.447-38.133 43.437-38.133S101.52 33.48 101.52 54.542z" transform="matrix(3.862 0 0 4.40164 75.804 15.93)" stroke-width="3.881" stroke-linecap="square"/><path d="M214.79 170.667v170.666" stroke-width="16.00170276"/><path d="M44.124 256h170.667M214.79 227.556l142.223-113.778V0" stroke-linecap="round" stroke-linejoin="round" stroke-width="16.00170276"/><path d="M43.75 68.75l15.625 12.5L75 93.75" stroke-linecap="round" stroke-linejoin="round" marker-mid="url(#a)" transform="translate(15.68 -28.444) scale(4.55111)"/><path d="M357.013 512V398.222" stroke-linecap="round" stroke-linejoin="round" stroke-width="16.00170276"/></g></symbol>
</svg>