<?xml version="1.0" encoding="UTF-8" standalone="no"?>
<!-- Created with Inkscape (http://www.inkscape.org/) -->

<svg
   xmlns:dc="http://purl.org/dc/elements/1.1/"
   xmlns:cc="http://creativecommons.org/ns#"
   xmlns:rdf="http://www.w3.org/1999/02/22-rdf-syntax-ns#"
   xmlns:svg="http://www.w3.org/2000/svg"
   xmlns="http://www.w3.org/2000/svg"
   xmlns:sodipodi="http://sodipodi.sourceforge.net/DTD/sodipodi-0.dtd"
   xmlns:inkscape="http://www.inkscape.org/namespaces/inkscape"
   width="512"
   height="512"
   id="svg2"
   version="1.1"
   inkscape:version="0.48.2 r9819"
   sodipodi:docname="compliance-weee.svg">
  <defs
     id="defs4" />
  <sodipodi:namedview
     id="base"
     pagecolor="#ffffff"
     bordercolor="#666666"
     borderopacity="1.0"
     inkscape:pageopacity="0.0"
     inkscape:pageshadow="2"
     inkscape:zoom="1.4"
     inkscape:cx="164.76283"
     inkscape:cy="296.14951"
     inkscape:document-units="px"
     inkscape:current-layer="layer1"
     showgrid="true"
     borderlayer="false"
     inkscape:window-width="1446"
     inkscape:window-height="1070"
     inkscape:window-x="0"
     inkscape:window-y="0"
     inkscape:window-maximized="0">
    <inkscape:grid
       type="xygrid"
       id="grid2985"
       empspacing="16"
       visible="true"
       enabled="true"
       snapvisiblegridlinesonly="true" />
  </sodipodi:namedview>
  <metadata
     id="metadata7">
    <rdf:RDF>
      <cc:Work
         rdf:about="">
        <dc:format>image/svg+xml</dc:format>
        <dc:type
           rdf:resource="http://purl.org/dc/dcmitype/StillImage" />
        <dc:title />
      </cc:Work>
    </rdf:RDF>
  </metadata>
  <g
     inkscape:label="Layer 1"
     inkscape:groupmode="layer"
     id="layer1"
     transform="translate(0,-540.36218)">
    <path
       id="path9123"
       d="m 237.65756,581.99514 h -30.01389 v 4.71831 h 30.01389 v -4.71831 z m -85.75813,14.64805 c -4.64369,2.52294 -8.25319,5.60418 -10.24617,9.36372 h 10.24617 v -9.36372 z m 155.82882,44.90032 -11.30698,11.5171 -0.54626,5.85716 h 13.57094 v -17.37426 h -1.7177 z m -102.0501,92.02604 -58.42241,-61.62798 9.57728,111.33413 48.84513,-49.70615 z m 11.55566,0.1518 55.85229,58.82203 11.59084,-124.37252 h -1.14314 v -1.98439 l -66.29999,67.53488 z m -71.10576,-74.88593 65.35323,68.8281 38.65641,-39.33646 h -54.49992 v -20.58153 h 63.03182 v 11.89869 l 24.86421,-25.30158 v -22.05225 h 4.48677 l 1.45014,-15.56563 H 142.50569 l 3.62236,42.11066 z m 157.78576,178.35962 c 0.26926,1.60706 0.40992,3.25788 0.40992,4.94214 0,16.37002 -13.26996,29.63912 -29.63914,29.63912 -11.36701,0 -21.24015,-6.39828 -26.21229,-15.79033 h -72.48131 v 15.48332 h -19.06965 v -15.52276 c -2.2331,-0.31388 -4.37528,-2.4372 -4.56653,-4.66429 L 148.28309,803.95585 47.261217,906.85754 41.222246,900.92317 147.33549,792.94044 135.89644,659.95884 34.947445,553.47085 v -11.7272 l 99.823005,105.13048 -2.63013,-30.57558 h -12.39694 v -10.29076 h 10.90733 c 0.18782,-0.578 0.43652,-1.25377 0.76325,-2.00843 3.62663,-8.38269 11.11745,-14.37535 20.48634,-18.63829 v -6.80133 h 17.58434 v 1.05223 c 9.16137,-2.10533 18.84754,-3.25017 27.86999,-3.83161 v -4.07513 h 50.5954 v 25.29899 h -50.5954 v -10.68697 c -8.9624,0.66977 -18.85526,1.89349 -27.86999,4.03827 v 15.65227 h 119.58215 c -4.69257,-11.07288 -22.93896,-16.25772 -41.1176,-18.60829 v -10.47858 c 18.24467,2.2614 36.99787,7.36305 46.4122,18.38447 2.51181,-3.19787 6.41459,-5.25259 10.79674,-5.25259 7.57828,0 13.72103,6.14274 13.72103,13.72102 0,7.57744 -6.14275,13.72103 -13.72103,13.72103 -1.88663,0 -3.68495,-0.38076 -5.32119,-1.07023 l -1.47929,15.86492 h 6.84851 l 90.33579,-91.92742 v 11.73319 l -78.72866,80.19338 h 1.6388 v 35.88217 H 295.014 l -12.51528,134.28424 92.57831,97.50075 -6.14187,5.82887 -65.02135,-68.58968 z m -58.87005,4.94214 c 0,-15.19432 11.43218,-27.71819 26.16426,-29.43846 l 0.84901,-9.10819 -60.62893,-63.95541 -53.6492,54.64741 4.42245,51.41354 h 83.05337 c -0.13894,-1.16716 -0.21096,-2.35487 -0.21096,-3.55889 z m 14.22525,0 c 0,8.51304 6.90084,15.4147 15.41474,15.4147 8.51302,0 15.4147,-6.90166 15.4147,-15.4147 0,-8.5139 -6.90168,-15.41472 -15.4147,-15.41472 -8.5139,0 -15.41474,6.90082 -15.41474,15.41472 z m 5.40353,0 c 0,-5.52872 4.48247,-10.01121 10.01121,-10.01121 5.5287,0 10.01119,4.48249 10.01119,10.01121 0,5.52872 -4.48249,10.01033 -10.01119,10.01033 -5.52874,0 -10.01121,-4.48161 -10.01121,-10.01033 z M 64,979.75992 h 298.15183 v 72.60228 H 64 v -72.60228 z"
       inkscape:connector-curvature="0" />
  </g>
</svg>
