<?xml version="1.0" encoding="UTF-8" standalone="no"?>
<!-- Created with Inkscape (http://www.inkscape.org/) -->

<svg
   xmlns:dc="http://purl.org/dc/elements/1.1/"
   xmlns:cc="http://creativecommons.org/ns#"
   xmlns:rdf="http://www.w3.org/1999/02/22-rdf-syntax-ns#"
   xmlns:svg="http://www.w3.org/2000/svg"
   xmlns="http://www.w3.org/2000/svg"
   xmlns:sodipodi="http://sodipodi.sourceforge.net/DTD/sodipodi-0.dtd"
   xmlns:inkscape="http://www.inkscape.org/namespaces/inkscape"
   width="512"
   height="512"
   id="svg2"
   version="1.1"
   inkscape:version="0.48.2 r9819"
   sodipodi:docname="TEMPLATE.svg">
  <defs
     id="defs4" />
  <sodipodi:namedview
     id="base"
     pagecolor="#ffffff"
     bordercolor="#666666"
     borderopacity="1.0"
     inkscape:pageopacity="0.0"
     inkscape:pageshadow="2"
     inkscape:zoom="1.4"
     inkscape:cx="127.26283"
     inkscape:cy="239.00665"
     inkscape:document-units="px"
     inkscape:current-layer="layer1"
     showgrid="true"
     borderlayer="false"
     inkscape:window-width="1446"
     inkscape:window-height="1070"
     inkscape:window-x="242"
     inkscape:window-y="8"
     inkscape:window-maximized="0">
    <inkscape:grid
       type="xygrid"
       id="grid2985"
       empspacing="16"
       visible="true"
       enabled="true"
       snapvisiblegridlinesonly="true" />
  </sodipodi:namedview>
  <metadata
     id="metadata7">
    <rdf:RDF>
      <cc:Work
         rdf:about="">
        <dc:format>image/svg+xml</dc:format>
        <dc:type
           rdf:resource="http://purl.org/dc/dcmitype/StillImage" />
        <dc:title></dc:title>
      </cc:Work>
    </rdf:RDF>
  </metadata>
  <g
     inkscape:label="Layer 1"
     inkscape:groupmode="layer"
     id="layer1"
     transform="translate(0,-540.36218)">
    <g
       id="layer1-3"
       transform="translate(-683.09419,1158.6706)">
      <g
         id="g7496"
         transform="translate(17.719116,17.733261)">
        <path
           id="path197"
           style="fill:#000000;fill-rule:evenodd;stroke:none;fill-opacity:1"
           d="m 907.75451,-268.94955 c 0,0 16.14894,28.38297 34.41846,0 l 35.39716,-51.54607 -104.23404,-166.70923 c 0,0 -16.14895,-22.34747 -35.39717,0 l -36.37585,50.4043 106.19144,167.851 z m 14.1915,80.90787 c 54.64538,0 104.23409,-20.22695 140.60989,-52.5249 l -124.46093,-195.09216 38.49642,-52.68792 c 16.14894,-21.20566 33.27661,0 33.27661,0 l 106.3546,167.85104 c 5.0568,-14.1915 7.9929,-30.34041 8.9716,-45.51066 l -120.383,-190.0354 c -25.28363,-10.11349 -53.50347,-16.14894 -82.86519,-16.14894 -105.86524,0 -204.39003,81.23402 -204.39003,192.156 0,17.12765 2.93614,34.2553 7.01415,49.42551 l 59.70212,-81.88653 41.59578,63.78018 c 9.95033,15.1702 0,28.21984 0,28.21984 l -52.68798,72.75176 c 39.80142,39.80147 93.14184,59.70218 148.76596,59.70218"
           inkscape:connector-curvature="0" />
      </g>
    </g>
  </g>
</svg>
