<?xml version="1.0" encoding="UTF-8" standalone="no"?>
<!-- Created with Inkscape (http://www.inkscape.org/) -->

<svg
   xmlns:dc="http://purl.org/dc/elements/1.1/"
   xmlns:cc="http://creativecommons.org/ns#"
   xmlns:rdf="http://www.w3.org/1999/02/22-rdf-syntax-ns#"
   xmlns:svg="http://www.w3.org/2000/svg"
   xmlns="http://www.w3.org/2000/svg"
   xmlns:sodipodi="http://sodipodi.sourceforge.net/DTD/sodipodi-0.dtd"
   xmlns:inkscape="http://www.inkscape.org/namespaces/inkscape"
   width="512"
   height="512"
   id="svg2"
   version="1.1"
   inkscape:version="0.48.2 r9819"
   sodipodi:docname="TEMPLATE.svg">
  <defs
     id="defs4" />
  <sodipodi:namedview
     id="base"
     pagecolor="#ffffff"
     bordercolor="#666666"
     borderopacity="1.0"
     inkscape:pageopacity="0.0"
     inkscape:pageshadow="2"
     inkscape:zoom="0.98994949"
     inkscape:cx="90.329175"
     inkscape:cy="256.38776"
     inkscape:document-units="px"
     inkscape:current-layer="layer1"
     showgrid="true"
     borderlayer="false"
     inkscape:window-width="1446"
     inkscape:window-height="1070"
     inkscape:window-x="0"
     inkscape:window-y="0"
     inkscape:window-maximized="0">
    <inkscape:grid
       type="xygrid"
       id="grid2985"
       empspacing="16"
       visible="true"
       enabled="true"
       snapvisiblegridlinesonly="true" />
  </sodipodi:namedview>
  <metadata
     id="metadata7">
    <rdf:RDF>
      <cc:Work
         rdf:about="">
        <dc:format>image/svg+xml</dc:format>
        <dc:type
           rdf:resource="http://purl.org/dc/dcmitype/StillImage" />
        <dc:title></dc:title>
      </cc:Work>
    </rdf:RDF>
  </metadata>
  <g
     inkscape:label="Layer 1"
     inkscape:groupmode="layer"
     id="layer1"
     transform="translate(0,-540.36218)">
    <g
       id="layer1-3"
       transform="matrix(0.83586138,0,0,0.83586138,-75.171713,563.64973)">
      <g
         id="g12064"
         style="fill:#ff0000"
         transform="translate(3.548419,3.535024)">
        <path
           id="path12001"
           style="fill:#000000;fill-rule:nonzero;stroke:none;fill-opacity:1"
           d="m 390.80259,45.172151 c -102.98395,0 -190.11822,67.814869 -219.29437,161.178599 l 18.60969,0 c 28.5453,-83.50692 107.55753,-143.515197 200.68468,-143.515197 93.12715,0 172.13938,60.008277 200.68468,143.515197 l 18.6097,0 C 580.99968,112.98702 493.78655,45.172151 390.80259,45.172151"
           inkscape:connector-curvature="0" />
        <path
           id="path12003"
           style="fill:#000000;fill-rule:nonzero;stroke:none;fill-opacity:1"
           d="m 591.48727,343.39986 c -28.5453,83.5069 -107.55753,143.51517 -200.68468,143.51517 -93.12715,0 -172.13938,-60.00827 -200.68468,-143.51517 l -18.60969,0 c 29.17615,93.44257 116.31042,161.17862 219.29437,161.17862 102.98396,0 190.19709,-67.73605 219.29438,-161.17862 l -18.6097,0"
           inkscape:connector-curvature="0" />
        <path
           id="path12005"
           style="fill:#000000;fill-rule:nonzero;stroke:none;stroke-opacity:1;fill-opacity:1"
           d="m 415.32637,185.29659 34.22285,0 0,134.99891 -34.22285,0 0,-134.99891 z"
           inkscape:connector-curvature="0" />
        <path
           id="path12007"
           style="fill:#000000;fill-rule:nonzero;stroke:none;stroke-width:1.96347713000000001;stroke-linecap:butt;stroke-linejoin:miter;stroke-miterlimit:4;stroke-dasharray:none;fill-opacity:1;stroke-opacity:1"
           d="m 348.53657,242.54496 c 12.53788,-0.70969 20.50219,12.85329 20.50219,30.75326 0,23.10436 -7.96431,33.11888 -20.97532,33.11888 -12.30129,0 -20.89645,-10.01452 -20.89645,-33.11888 0,-13.72069 4.88904,-30.75326 21.36958,-30.75326 z m -54.33073,33.43431 c 0,33.04003 23.89293,49.99375 54.80385,49.99375 30.91098,0 54.88277,-16.55945 54.88277,-51.96512 0,-30.12241 -20.97531,-50.15145 -55.04044,-50.15145 -32.56695,0 -54.64618,18.60965 -54.64618,52.12282 z"
           inkscape:connector-curvature="0" />
        <path
           id="path12009"
           style="fill:#000000;fill-rule:nonzero;stroke:none;fill-opacity:1"
           d="m 518.38919,301.84354 c -9.77794,0 -18.29424,-7.57003 -18.29424,-18.92507 l 70.3382,0 c 0.55199,-34.8537 -20.18673,-59.61401 -54.56731,-59.61401 -29.72814,0 -52.51709,20.34447 -52.51709,51.80741 0,32.5669 22.94668,50.23031 52.67482,50.23031 21.6061,0 45.0259,-7.88545 51.41311,-31.85721 l -35.24797,0 c -2.68107,5.59867 -7.9643,8.35857 -13.79952,8.35857 z m 15.2189,-38.55984 -33.51314,0 c -0.0789,-24.91803 33.8286,-25.23345 33.51314,0"
           inkscape:connector-curvature="0" />
        <path
           id="path12015"
           style="fill:#000000;fill-rule:nonzero;stroke:none;fill-opacity:1"
           d="m 613.09344,226.06437 c 4.65237,7.33347 9.22595,15.92861 14.27265,22.8678 l 16.16521,-22.8678 32.56689,0 c -9.46255,14.9035 -21.60617,28.70303 -30.67439,43.60654 0,0 22.00036,35.48452 31.22638,50.62459 l -36.58854,0 c -7.09686,-11.51276 -14.27265,-25.39115 -17.34799,-29.80701 l -18.53077,29.80701 -33.19774,0 c 11.7493,-17.58455 33.8286,-50.46688 33.8286,-50.46688 l -29.72815,-43.76425 38.00785,0"
           inkscape:connector-curvature="0" />
        <path
           id="path12017"
           style="fill:#000000;fill-rule:nonzero;stroke:none;fill-opacity:1"
           d="m 210.46238,320.37435 0,-59.29858 c 0,-9.22598 7.49118,-16.71716 16.71713,-16.71716 9.22595,0 16.71714,7.49118 16.71714,16.71716 l 0,59.29858 0,0 32.80348,-0.0788 0,-70.65363 c -0.47313,-6.62378 -7.01806,-16.4806 -14.90351,-20.8176 -10.56645,-5.04668 -34.22285,-10.88191 -53.77873,10.64537 -6.30841,-6.70264 -14.19385,-11.82818 -22.78895,-14.19382 -14.50924,-3.07532 -29.72814,0.0789 -40.37353,11.11849 -1.41937,1.18282 -2.60221,4.10043 -2.52335,1.65594 l 0,-11.98588 -33.67086,0 0,94.23113 33.67086,0 0,-59.29859 c 0,-9.22597 7.57005,-16.71715 16.796,-16.71715 9.22602,0 16.7172,7.49118 16.7172,16.71715 l 0,59.37744 34.61712,0"
           inkscape:connector-curvature="0" />
      </g>
    </g>
  </g>
</svg>
