<?xml version="1.0" encoding="UTF-8" standalone="no"?>
<!-- Created with Inkscape (http://www.inkscape.org/) -->

<svg
   xmlns:dc="http://purl.org/dc/elements/1.1/"
   xmlns:cc="http://creativecommons.org/ns#"
   xmlns:rdf="http://www.w3.org/1999/02/22-rdf-syntax-ns#"
   xmlns:svg="http://www.w3.org/2000/svg"
   xmlns="http://www.w3.org/2000/svg"
   xmlns:sodipodi="http://sodipodi.sourceforge.net/DTD/sodipodi-0.dtd"
   xmlns:inkscape="http://www.inkscape.org/namespaces/inkscape"
   width="512"
   height="512"
   id="svg2"
   version="1.1"
   inkscape:version="0.48.2 r9819"
   sodipodi:docname="logo-hirose.svg">
  <defs
     id="defs4" />
  <sodipodi:namedview
     id="base"
     pagecolor="#ffffff"
     bordercolor="#666666"
     borderopacity="1.0"
     inkscape:pageopacity="0.0"
     inkscape:pageshadow="2"
     inkscape:zoom="0.7"
     inkscape:cx="457.15083"
     inkscape:cy="48.53499"
     inkscape:document-units="px"
     inkscape:current-layer="layer1"
     showgrid="true"
     borderlayer="false"
     inkscape:window-width="1446"
     inkscape:window-height="1070"
     inkscape:window-x="0"
     inkscape:window-y="0"
     inkscape:window-maximized="0">
    <inkscape:grid
       type="xygrid"
       id="grid2985"
       empspacing="16"
       visible="true"
       enabled="true"
       snapvisiblegridlinesonly="true" />
  </sodipodi:namedview>
  <metadata
     id="metadata7">
    <rdf:RDF>
      <cc:Work
         rdf:about="">
        <dc:format>image/svg+xml</dc:format>
        <dc:type
           rdf:resource="http://purl.org/dc/dcmitype/StillImage" />
        <dc:title />
      </cc:Work>
    </rdf:RDF>
  </metadata>
  <g
     inkscape:label="Layer 1"
     inkscape:groupmode="layer"
     id="layer1"
     transform="translate(0,-540.36218)">
    <g
       id="layer1-9"
       transform="matrix(0.7284844,0,0,0.7284844,58.068083,384.6087)">
      <g
         id="g2699"
         transform="matrix(30.779037,0,0,-30.779037,-16415.341,1190.6186)">
        <path
           style="fill:#000000;fill-opacity:1;fill-rule:nonzero;stroke:none"
           id="path2701"
           d="m 564.849,25.49 0,3.392 c 0,0 -5.896,0 -6.822,0 -0.926,0 -2.864,-1.287 -2.864,-2.86 0,-1.884 0,0 0,0 l 0,-3.816 c 0,-1.401 1.403,-2.946 2.992,-2.946 1.677,0 3.287,0 3.287,0 l 0,-4.097 -5.389,0 -4.721,4.702 c 1.45,0.965 1.472,2.308 1.472,2.308 l 0,3.348 c 0,2.579 -2.358,3.361 -3.351,3.361 -1.065,0 -8.066,0 -8.066,0 l 0,-6.295 -4.02,0 0,6.295 -5.201,0 0,-3.379 1.766,0 0,-10.34 -1.766,0 0,-3.407 5.201,0 0,7.452 4.02,0 0,-7.452 5.172,0 0,3.407 -1.794,0 0,10.34 4.632,0 0,-2.896 -2.278,0 0,-3.407 7.448,-7.387 c 0,0 5.6,0 7.066,0 1.575,0 3.266,1.449 3.266,3.478 l 0.006,0 0,3.921 -0.012,0 c 0,1.974 -1.724,3.413 -3.472,3.413 -0.804,0 -2.8,0 -2.8,0 l 0,2.865 6.228,0"
           inkscape:connector-curvature="0" />
      </g>
    </g>
  </g>
</svg>
