<?xml version="1.0" encoding="UTF-8" standalone="no"?>
<!-- Created with Inkscape (http://www.inkscape.org/) -->

<svg
   xmlns:dc="http://purl.org/dc/elements/1.1/"
   xmlns:cc="http://creativecommons.org/ns#"
   xmlns:rdf="http://www.w3.org/1999/02/22-rdf-syntax-ns#"
   xmlns:svg="http://www.w3.org/2000/svg"
   xmlns="http://www.w3.org/2000/svg"
   xmlns:sodipodi="http://sodipodi.sourceforge.net/DTD/sodipodi-0.dtd"
   xmlns:inkscape="http://www.inkscape.org/namespaces/inkscape"
   width="512"
   height="512"
   id="svg2"
   version="1.1"
   inkscape:version="0.48.2 r9819"
   sodipodi:docname="TEMPLATE.svg">
  <defs
     id="defs4" />
  <sodipodi:namedview
     id="base"
     pagecolor="#ffffff"
     bordercolor="#666666"
     borderopacity="1.0"
     inkscape:pageopacity="0.0"
     inkscape:pageshadow="2"
     inkscape:zoom="0.0875"
     inkscape:cx="4602.949"
     inkscape:cy="-2010.0077"
     inkscape:document-units="px"
     inkscape:current-layer="layer1"
     showgrid="true"
     borderlayer="false"
     inkscape:window-width="1440"
     inkscape:window-height="856"
     inkscape:window-x="0"
     inkscape:window-y="0"
     inkscape:window-maximized="0">
    <inkscape:grid
       type="xygrid"
       id="grid2985"
       empspacing="16"
       visible="true"
       enabled="true"
       snapvisiblegridlinesonly="true" />
  </sodipodi:namedview>
  <metadata
     id="metadata7">
    <rdf:RDF>
      <cc:Work
         rdf:about="">
        <dc:format>image/svg+xml</dc:format>
        <dc:type
           rdf:resource="http://purl.org/dc/dcmitype/StillImage" />
        <dc:title></dc:title>
      </cc:Work>
    </rdf:RDF>
  </metadata>
  <g
     inkscape:label="Layer 1"
     inkscape:groupmode="layer"
     id="layer1"
     transform="translate(0,-540.36218)">
    <g
       transform="matrix(8.9280817,0,0,8.9280817,1465.9456,776.18871)"
       id="layer1-9">
      <path
         inkscape:connector-curvature="0"
         d="m 0,0.25 0,43 32.40625,0 C 43.235,42.32625 45.94,38.466249 47.0625,28.40625 l 0,-13.0625 C 46.11625,6.8737499 45.547499,0.25000001 32.40625,0.25 z m 52,0 0,43 10.9375,0 0,-14.28125 17.15625,0 c 4.46125,0.5325 4.843746,4.643752 4.84375,9.15625 0,0 -0.114998,4.432502 1.09375,5.125 l 10.625,0 c 0,0 -0.882502,-2.353749 -1.15625,-7.3125 0.16875,-7.14125 -1.674999,-8.94625 -4.6875,-11.03125 l 0.0625,-0.375 c 2.68,-1.545 4.8325,-3.355 5.09375,-8.78125 l 0,-2.71875 c 0,-5.8625001 -0.62125,-12.78124999 -11,-12.78125 z m 50.0625,0 0,43 39.59375,0 0,-9.375 -28.6875,0 0,-8.84375 26.5625,0 0,-7.90625 -26.5625,0 0,-8.40625 28.03125,0 0,-8.46875 z m 44.625,0 0,43 10.34375,0 0,-31.125 0.625,0 14.78125,31.125 8.1875,0 14.3125,-31.125 0.625,0 0,31.125 10.625,0 0,-43 -17.34375,0 -12.375,27.65625 -0.3125,0 L 163.125,0.25 z m 66.53125,0 0,43 39.59375,0 0,-9.375 -28.6875,0 0,-8.84375 26.5625,0 0,-7.90625 -26.5625,0 0,-8.40625 28.03125,0 0,-8.46875 z m 44.28125,0 0,43 35.46875,0 0,-9.375 -24.5625,0 0,-33.625 z m -246.78125,8.46875 19.03125,0 c 5.35125,0 6.499998,3.852499 6.5,9.96875 l 0,5.8125 c 0,6.11625 -1.428749,9.375 -6.5,9.375 l -19.03125,0 z m 52.21875,0 17.0625,0 c 3.4425,0 5.156248,0.6999996 5.15625,4.5 l 0,1.4375 c 0,3.0875 -1.236251,5.4375 -4.1875,5.4375 l -18.03125,0 z"
         transform="translate(-164.19491,-19.485268)"
         style="fill:#005294;fill-opacity:1;fill-rule:nonzero;stroke:none"
         id="path2587"
         sodipodi:nodetypes="cccccscccccccccccccssccccccccccccccccccccccccccccccccccccccccccccccccccccsssscccsssscc" />
    </g>
  </g>
</svg>
