<?xml version="1.0" encoding="UTF-8" standalone="no"?>
<!-- Created with Inkscape (http://www.inkscape.org/) -->

<svg
   xmlns:dc="http://purl.org/dc/elements/1.1/"
   xmlns:cc="http://creativecommons.org/ns#"
   xmlns:rdf="http://www.w3.org/1999/02/22-rdf-syntax-ns#"
   xmlns:svg="http://www.w3.org/2000/svg"
   xmlns="http://www.w3.org/2000/svg"
   xmlns:sodipodi="http://sodipodi.sourceforge.net/DTD/sodipodi-0.dtd"
   xmlns:inkscape="http://www.inkscape.org/namespaces/inkscape"
   width="512"
   height="512"
   id="svg2"
   version="1.1"
   inkscape:version="0.48.2 r9819"
   sodipodi:docname="TEMPLATE.svg">
  <defs
     id="defs4" />
  <sodipodi:namedview
     id="base"
     pagecolor="#ffffff"
     bordercolor="#666666"
     borderopacity="1.0"
     inkscape:pageopacity="0.0"
     inkscape:pageshadow="2"
     inkscape:zoom="0.35"
     inkscape:cx="-114.83306"
     inkscape:cy="332.20625"
     inkscape:document-units="px"
     inkscape:current-layer="layer1"
     showgrid="true"
     borderlayer="false"
     inkscape:window-width="1446"
     inkscape:window-height="1070"
     inkscape:window-x="210"
     inkscape:window-y="23"
     inkscape:window-maximized="0">
    <inkscape:grid
       type="xygrid"
       id="grid2985"
       empspacing="16"
       visible="true"
       enabled="true"
       snapvisiblegridlinesonly="true" />
  </sodipodi:namedview>
  <metadata
     id="metadata7">
    <rdf:RDF>
      <cc:Work
         rdf:about="">
        <dc:format>image/svg+xml</dc:format>
        <dc:type
           rdf:resource="http://purl.org/dc/dcmitype/StillImage" />
        <dc:title></dc:title>
      </cc:Work>
    </rdf:RDF>
  </metadata>
  <g
     inkscape:label="Layer 1"
     inkscape:groupmode="layer"
     id="layer1"
     transform="translate(0,-540.36218)">
    <g
       transform="matrix(3.0398746,0,0,-3.0398746,29.632831,988.36218)"
       inkscape:label="ink_ext_XXXXXX"
       id="g4238">
      <g
         transform="scale(0.1,0.1)"
         id="g4240">
        <path
           id="path4242"
           style="fill:#000000;fill-opacity:1;fill-rule:nonzero;stroke:none"
           d="m 3000.3,1263.21 -41.35,-207.16 -254.72,0 L 2492.76,0 l -383.74,0 211.64,1056.05 -255.64,0 41.5,207.16 893.78,0"
           inkscape:connector-curvature="0" />
        <path
           id="path4244"
           style="fill:#000000;fill-opacity:1;fill-rule:nonzero;stroke:none"
           d="m 1871.81,1263.21 c 100.17,0 165.66,-81.03 145.98,-181.22 l -53.32,-249.924 -371.38,0 38.46,191.784 c 4.83,23.79 -0.71,39.17 -43.47,39.17 -58.5,0 -72.45,-3.22 -86.95,-73.875 -16.1,-78.008 17.89,-129.704 44.02,-169.067 26.12,-39.348 93.2,-98.926 172.82,-188.371 57.23,-64.398 167.25,-162.984 142.58,-286.781 L 1834.96,226.141 C 1810.63,101.09 1689.5,0 1564.65,0 l -465.5,0 C 998.965,0 933.668,81.0508 953.352,181.59 l 53.128,249.918 371.4,0 -38.29,-191.949 c -4.83,-23.797 0.71,-39.36 43.48,-39.36 58.31,0 72.44,3.211 86.93,73.707 15.93,78.188 -17.89,130.051 -44,169.242 -26.3,39.532 -93.39,98.934 -172.82,188.559 -57.25,64.395 -167.45,162.785 -142.76,286.59 l 25.59,118.973 c 24.32,125.04 145.44,225.94 270.31,225.94 l 465.49,0"
           inkscape:connector-curvature="0" />
        <path
           id="path4246"
           style="fill:#000000;fill-opacity:1;fill-rule:nonzero;stroke:none"
           d="M 1086.26,1263.21 870.867,185.531 C 850.66,80.5117 733.832,0 592.688,0 L 144.727,0 C 64.7578,0 0,64.7695 0,145.102 c 0,9.476 0.707031,19.32 2.85547,28.437 l 51.16403,258.691 383.5625,0 -37.211,-188.351 c -3.398,-15.238 -4.109,-50.66 27.367,-50.66 39.535,0 62.617,9.301 72.637,59.761 l 202.148,1010.23 383.737,0"
           inkscape:connector-curvature="0" />
      </g>
    </g>
  </g>
</svg>
