<?xml version="1.0" encoding="UTF-8" standalone="no"?>
<!-- Created with Inkscape (http://www.inkscape.org/) -->

<svg
   xmlns:dc="http://purl.org/dc/elements/1.1/"
   xmlns:cc="http://creativecommons.org/ns#"
   xmlns:rdf="http://www.w3.org/1999/02/22-rdf-syntax-ns#"
   xmlns:svg="http://www.w3.org/2000/svg"
   xmlns="http://www.w3.org/2000/svg"
   xmlns:sodipodi="http://sodipodi.sourceforge.net/DTD/sodipodi-0.dtd"
   xmlns:inkscape="http://www.inkscape.org/namespaces/inkscape"
   width="512"
   height="512"
   id="svg2"
   version="1.1"
   inkscape:version="0.48.2 r9819"
   sodipodi:docname="TEMPLATE.svg">
  <defs
     id="defs4" />
  <sodipodi:namedview
     id="base"
     pagecolor="#ffffff"
     bordercolor="#666666"
     borderopacity="1.0"
     inkscape:pageopacity="0.0"
     inkscape:pageshadow="2"
     inkscape:zoom="0.7"
     inkscape:cx="326.48799"
     inkscape:cy="147.09586"
     inkscape:document-units="px"
     inkscape:current-layer="layer1"
     showgrid="true"
     borderlayer="false"
     inkscape:window-width="1440"
     inkscape:window-height="856"
     inkscape:window-x="0"
     inkscape:window-y="0"
     inkscape:window-maximized="0">
    <inkscape:grid
       type="xygrid"
       id="grid2985"
       empspacing="16"
       visible="true"
       enabled="true"
       snapvisiblegridlinesonly="true" />
  </sodipodi:namedview>
  <metadata
     id="metadata7">
    <rdf:RDF>
      <cc:Work
         rdf:about="">
        <dc:format>image/svg+xml</dc:format>
        <dc:type
           rdf:resource="http://purl.org/dc/dcmitype/StillImage" />
        <dc:title></dc:title>
      </cc:Work>
    </rdf:RDF>
  </metadata>
  <g
     inkscape:label="Layer 1"
     inkscape:groupmode="layer"
     id="layer1"
     transform="translate(0,-540.36218)">
    <path
       style="fill:#000000"
       d="m 846.8455,989.35605 c -0.21555,-1.46013 0.36085,-4.36559 2.0045,-10.10534 2.83811,-9.9107 11.97619,-46.97562 12.73357,-51.64894 0.37183,-2.29376 0.85236,-5.55387 1.06782,-7.24465 l 0.39184,-3.07441 76.19974,0.0838 c 59.56519,0.066 76.78783,-0.091 78.89383,-0.72248 3.6519,-1.09408 5.4337,-3.06155 6.4514,-7.123 2.4058,-9.60208 5.4286,-19.13301 7.1294,-22.48016 1.0477,-2.06185 1.905,-3.9271 1.905,-4.14474 0,-0.21764 -3.2481,-0.20872 -7.2178,0.0197 -3.9701,0.22852 -29.78074,0.43081 -57.35718,0.44971 -55.73784,0.0375 -53.7654,0.17301 -62.6866,-4.31884 -8.6261,-4.34401 -14.67445,-12.40195 -16.77095,-22.34301 -1.69114,-8.01962 -1.05381,-18.56476 2.52059,-41.70412 6.50932,-42.13834 16.94441,-79.84855 28.40204,-102.63937 3.50078,-6.96345 4.23716,-7.98307 10.77448,-14.919 14.60988,-15.50065 34.23301,-25.22126 61.51558,-30.47261 6.94823,-1.3374 8.85544,-1.37959 72.51364,-1.60409 44.9127,-0.1584 66.4156,-0.0158 68.6931,0.45768 8.7887,1.82453 16.9214,8.09013 19.5218,15.04002 1.6751,4.47749 2.351,12.1386 1.5034,17.04503 -0.51,2.95225 -7.58,31.08363 -12.2549,48.76175 -0.6998,2.64659 -3.8918,15.0616 -7.0934,27.58887 -5.955,23.30124 -10.2759,40.11443 -15.9937,62.2354 -1.7787,6.88115 -7.418,28.82391 -12.5318,48.76164 -5.1139,19.93791 -10.4828,40.87018 -11.931,46.51627 -3.3166,12.93105 -4.5429,16.00848 -9.0894,22.80984 -10.7891,16.14014 -30.0227,27.58645 -53.1593,31.63627 -4.5537,0.79707 -19.1701,1.02023 -88.5587,1.35187 -67.13227,0.32092 -84.45816,0.57583 -90.14514,1.32687 -3.87198,0.51109 -7.11221,0.93174 -7.20046,0.93477 -0.0887,0 -0.19233,-0.21122 -0.2314,-0.47595 z m 169.9411,-166.49573 c 0.7437,-0.79399 1.6819,-2.30978 2.0849,-3.36842 0.6008,-1.57825 6.0151,-27.05999 9.9519,-46.83695 0.4916,-2.47016 1.9172,-9.38932 3.1675,-15.37593 2.6513,-12.69416 2.9033,-17.67829 0.9903,-19.59137 -1.6188,-1.6187 -2.2399,-1.60975 -3.9059,0.0562 -2.2349,2.23489 -2.9451,4.777 -7.2664,26.01325 -2.2885,11.24566 -5.6445,27.66466 -7.4581,36.48668 -3.3411,16.25355 -3.7272,20.89718 -1.9186,23.0764 1.1552,1.39198 2.7803,1.22034 4.3544,-0.45992 z M 535.41881,968.65284 C 435.42287,965.0579 348.13852,955.9321 264.9836,940.37798 c -10.68425,-1.99833 -43.60203,-8.91796 -46.35645,-9.74445 -0.26505,-0.0803 5.07627,-0.14802 11.86963,-0.15348 13.42617,-0.0178 18.30446,-0.7057 22.69312,-3.23495 1.45326,-0.83754 2.84877,-1.31615 3.10107,-1.06391 0.25231,0.25224 0.37699,0.16949 0.27707,-0.18286 -0.1,-0.35285 0.73908,-2.0647 1.86447,-3.80401 1.22294,-1.89006 2.2131,-4.4209 2.46113,-6.29079 0.31249,-2.35566 0.64266,-3.04105 1.3367,-2.77471 0.50695,0.19464 5.04198,1.55272 10.0779,3.01803 5.03589,1.4653 9.5832,2.98199 10.10509,3.37052 0.52192,0.38854 2.00927,2.37011 3.30528,4.40324 4.18832,6.57087 3.53679,6.41727 25.42317,5.98931 l 18.89006,-0.36926 10.6236,2.51175 c 44.09004,10.4243 99.48319,18.69416 156.90886,23.42563 85.96614,7.08286 187.46032,7.08001 286.15446,0 14.16841,-1.01771 52.13635,-4.39555 59.49148,-5.29287 l 4.3138,-0.52625 -0.39256,1.64781 c -0.86484,3.63079 -0.8451,3.62258 -11.5705,4.77749 -60.10835,6.47168 -91.37376,8.88426 -155.46092,11.99664 -17.94862,0.87144 -124.67789,1.3003 -144.68125,0.5812 z M 131.0159,923.32788 c -2.22257,-1.10301 -3.9767,-3.73286 -3.9767,-5.96202 0,-0.72445 1.1756,-5.57474 2.61242,-10.77859 1.43684,-5.20385 4.59021,-16.82393 7.00746,-25.82234 2.41726,-8.9986 8.77631,-32.52927 14.13119,-52.2906 5.35486,-19.76135 12.42487,-45.89057 15.71108,-58.06499 3.28624,-12.17436 12.2295,-45.23291 19.87393,-73.46341 7.64443,-28.23049 14.28325,-52.77174 14.75292,-54.53615 5.97044,-22.42855 8.31872,-30.46121 9.43135,-32.26149 0.72952,-1.18037 2.51851,-2.92169 3.97556,-3.86959 l 2.64915,-1.72345 57.10258,-0.19307 c 40.33345,-0.1364 57.81813,0.0158 59.53924,0.51613 2.51524,0.73211 4.93457,3.65815 4.93934,5.97383 0.002,0.96689 -11.1332,42.57067 -26.37711,98.55127 -3.40339,12.49834 -3.89372,16.25085 -2.328,17.81656 0.85108,0.85108 1.17716,0.84634 2.89508,-0.0419 3.63243,-1.8784 6.56362,-7.13782 15.35367,-27.54902 4.73858,-11.00343 15.12889,-35.16407 23.08958,-53.69033 7.9607,-18.52625 15.17011,-34.616 16.02096,-35.75499 0.85085,-1.139 2.90863,-2.87132 4.57286,-3.84961 l 3.02588,-1.77874 57.83715,0 c 55.97519,0 57.88063,0.0394 59.18777,1.22226 2.78197,2.51755 2.12952,4.38342 -10.58954,30.2833 -6.56709,13.3726 -17.57803,35.86265 -24.46875,49.9779 -6.89071,14.11525 -16.05208,32.88211 -20.35862,41.70414 -6.01723,12.32642 -8.44997,16.65598 -10.50767,18.70046 -4.72261,4.69229 -5.83488,5.01342 -33.1355,9.56658 -15.50766,2.58636 -22.33734,4.45299 -22.65847,6.19288 -0.35199,1.90718 3.57013,2.87176 22.77821,5.60189 10.16769,1.44518 19.71875,3.08129 21.22457,3.63583 3.60866,1.32893 6.03113,4.52916 6.40358,8.45955 0.15734,1.66131 -0.17494,11.82654 -0.73888,22.58941 -0.56381,10.76287 -1.17917,23.0335 -1.36749,27.26809 -0.18831,4.23456 -0.46654,9.43153 -0.61834,11.54883 -0.15189,2.11729 -0.44589,8.32479 -0.65357,13.79444 -0.20768,5.46966 -0.49609,11.38849 -0.64089,13.15279 -0.14484,1.76446 -0.73661,13.31335 -1.3151,25.6641 -1.17113,25.00316 -1.28428,25.57544 -5.62472,28.44825 l -2.5794,1.70702 -55.2249,0.17125 c -57.90448,0.17964 -57.34675,0.20389 -60.51908,-2.6336 -2.75916,-2.46804 -2.75094,-3.77743 0.22693,-36.14637 1.55259,-16.87655 3.6919,-40.3566 4.754,-52.17808 1.06212,-11.82154 2.38616,-26.11321 2.94231,-31.75931 1.79662,-18.23861 -0.18208,-24.00332 -6.10273,-17.77943 -3.3368,3.50773 -5.05395,8.55498 -11.6149,34.14026 -3.21242,12.5273 -7.14814,27.8295 -8.74602,34.00492 -8.04605,31.09574 -10.13009,39.20648 -13.15693,51.20527 -1.89103,7.49618 -3.86626,13.88937 -4.65088,15.05374 -0.75015,1.11316 -2.61143,2.90082 -4.13619,3.9726 l -2.77231,1.94855 -57.52879,0.15348 c -52.20408,0.13921 -57.72485,0.0553 -59.64729,-0.8982 z m 299.70234,-2.74474 c -2.37391,-1.45568 -3.40936,-3.12203 -3.40936,-5.48714 0,-0.9255 4.35236,-17.7626 9.6719,-37.41545 5.31955,-19.65293 11.1183,-41.07392 12.88611,-47.60221 1.76782,-6.5283 4.61525,-17.06661 6.3276,-23.41847 1.71238,-6.35186 8.62056,-31.90367 15.3515,-56.78177 6.73094,-24.87811 13.71619,-50.71863 15.5228,-57.42338 1.80658,-6.70474 3.6697,-12.95001 4.14025,-13.87841 1.01369,-1.99998 4.33711,-4.91385 6.63988,-5.82166 1.7023,-0.67106 95.53487,-0.7547 97.27565,-0.0868 1.24301,0.47699 3.49203,4.2553 3.49203,5.86654 0,0.72972 -1.17106,5.68485 -2.60236,11.01139 -2.96815,11.04599 -3.16091,14.96425 -0.75299,15.30599 2.67156,0.37917 8.81623,-6.75843 14.23276,-16.53268 5.65025,-10.196 7.35114,-12.27861 11.78292,-14.42745 3.31011,-1.60497 3.40831,-1.61237 22.63939,-1.70242 12.75851,-0.0598 19.7538,0.14449 20.60801,0.60167 0.71123,0.38065 1.80553,1.77176 2.43173,3.09135 1.27193,2.68054 1.29044,2.56508 -2.85326,17.85558 -15.42067,56.90322 -14.20129,53.27769 -19.08935,56.75825 l -2.28565,1.62751 -23.82002,0.42161 c -13.10099,0.23188 -25.63687,0.71698 -27.8575,1.07796 -7.13548,1.15997 -12.78042,5.73141 -15.44686,12.50934 -0.98834,2.51228 -21.99736,79.43939 -35.42419,129.70993 -5.51037,20.63113 -5.39548,20.36282 -10.16905,23.73924 l -2.7213,1.92485 -47.2632,0.16403 c -45.91671,0.16051 -47.32141,0.12848 -49.30744,-1.08836 z m 246.81535,-0.7521 c -14.16531,-0.55873 -21.51673,-2.58525 -31.14242,-8.58472 -9.38708,-5.85071 -16.67485,-16.38972 -19.16915,-27.72096 -1.32157,-6.00323 -1.35127,-21.05642 -0.0563,-28.42455 2.36988,-13.48308 19.90814,-78.36365 28.8096,-106.57746 5.78078,-18.32254 13.29504,-35.14194 20.62838,-46.17279 6.365,-9.57427 18.24195,-20.21342 26.74187,-23.95484 4.43296,-1.95123 27.26982,-7.19906 36.52341,-8.39297 9.28311,-1.19767 26.18952,-2.62094 42.56646,-3.58343 11.54225,-0.67835 30.17534,-0.49723 41.2485,0.40094 29.38763,2.38379 41.99263,4.13804 49.97385,6.95499 4.13484,1.45942 10.12449,5.53459 14.61883,9.94622 4.71433,4.62761 7.93649,10.29183 10.09427,17.74459 1.30562,4.50966 1.47102,6.41121 1.42068,16.33194 -0.0558,10.97914 -0.13182,11.58361 -3.42795,27.26808 -6.19863,29.49573 -12.5648,52.94296 -15.59531,57.44007 -0.81134,1.20392 -2.89045,3.06412 -4.62024,4.13374 l -3.14499,1.94479 -57.1535,0.32079 c -63.60079,0.35698 -58.94183,0.005 -63.12665,4.77107 -2.32982,2.65359 -5.11946,10.9296 -5.63658,16.72261 -0.39494,4.42375 0.76704,7.35535 3.79667,9.57841 1.78951,1.31308 2.45422,1.33261 56.14018,1.6496 58.62892,0.34619 56.22131,0.19274 57.81236,3.68483 0.37811,0.8296 0.68731,2.06184 0.68731,2.73828 0,1.16914 -4.58615,18.77338 -12.9282,49.62564 -2.08549,7.7131 -4.20156,14.81611 -4.70228,15.78442 -1.34901,2.6088 -5.14853,5.68623 -7.5386,6.10616 -2.89934,0.50931 -150.53415,0.74923 -162.82022,0.26455 z m 88.64204,-141.37977 c 0.75658,-0.87016 1.66548,-1.403 2.01968,-1.18407 0.35419,0.21891 0.45305,0.0891 0.21952,-0.28885 -0.23353,-0.37778 -0.14626,-1.41861 0.19377,-2.31294 0.33993,-0.89433 1.7663,-7.19824 3.16961,-14.00868 1.40331,-6.81045 3.0036,-14.54805 3.55623,-17.19465 0.55266,-2.64661 1.00084,-5.82253 0.99589,-7.05764 -0.0204,-5.09119 -3.24005,-7.39474 -5.63492,-4.03139 -1.74787,2.45448 -2.79149,6.34777 -6.24079,23.27946 -3.28044,16.10252 -3.6933,21.12573 -1.89954,23.10785 1.48846,1.64473 1.9565,1.60476 3.62055,-0.30909 z M 110.03676,895.58694 c -17.629024,-6.41567 -28.513304,-11.12735 -42.987334,-18.60871 -10.76567,-5.56456 -20.08473,-11.11183 -21.00264,-12.50185 -0.25926,-0.39265 -0.47581,-0.47345 -0.48121,-0.17929 -0.0125,0.6736 -9.43866,-5.85089 -14.11956,-9.77296 -1.93781,-1.62366 -4.22559,-3.52957 -5.08394,-4.23533 -4.05935,-3.33772 -11.04499,-10.7888 -14.73739,-15.71927 -5.0261998,-6.71158 -8.6161798,-14.00141 -10.4168498,-21.15299 -1.94737,-7.73366 -1.50476,-18.56258 1.0734,-26.2627 2.00487,-5.9881 9.1810398,-18.44745 10.4665298,-18.1722 0.45281,0.0968 0.63291,-0.13165 0.40027,-0.50815 -1.15021,-1.86106 16.22911,-18.16308 28.29131,-26.53762 12.08798,-8.39245 29.24644,-18.12762 30.5406,-17.32781 0.41819,0.25847 0.54399,0.15875 0.29934,-0.23702 -0.8052,-1.30284 25.43481,-13.19495 47.060684,-21.32813 20.67309,-7.77486 61.13578,-20.56329 62.07877,-19.62029 0.15329,0.1533 -0.45746,2.82562 -1.35717,5.93858 -0.89967,3.11297 -2.62594,9.26896 -3.83612,13.67997 -1.21017,4.41101 -3.27762,11.91776 -4.59434,16.68164 l -2.39403,8.6616 -4.26368,2.43023 c -16.24143,9.25733 -34.05768,23.49598 -42.89671,34.28286 -1.2314,1.50277 -2.5399,2.5463 -2.90774,2.31894 -0.36786,-0.22735 -0.49812,-0.1371 -0.28944,0.2005 0.20867,0.33766 -0.92835,2.4755 -2.52668,4.75076 -2.4138,3.43614 -7.27848,12.58566 -7.27848,13.68945 0,0.16984 -0.32956,1.12151 -0.73236,2.1149 -1.82181,4.49302 -2.27055,15.30313 -0.91331,22.00139 1.81805,8.97243 6.78347,19.25349 12.97349,26.86198 1.53402,1.88557 2.62293,3.69721 2.41979,4.02592 -0.20315,0.32868 -0.097,0.51829 0.23582,0.42133 0.33286,-0.0968 3.34055,2.46305 6.68379,5.68892 l 6.07859,5.86522 -5.5804,19.47806 c -3.06922,10.71294 -6.06354,21.13812 -6.65402,23.16732 -0.77732,2.67107 -1.3785,3.68254 -2.17848,3.66488 -0.60769,-0.0178 -5.72442,-1.70543 -11.3705,-3.76013 z m 1000.57814,-0.10173 c 0,-0.37301 0.327,-1.9771 0.7268,-3.56443 l 0.7266,-2.88602 10.9825,-5.37582 c 6.0405,-2.95666 14.2722,-7.26285 18.2926,-9.56946 4.0208,-2.30641 7.6298,-4.01147 8.0201,-3.78903 0.3905,0.22264 0.5093,0.18179 0.264,-0.091 -0.3546,-0.39371 8.9216,-7.1626 14.1108,-10.29687 0.5844,-0.35288 1.3577,-0.95033 1.7188,-1.32771 0.3611,-0.37734 3.4567,-3.06027 6.8793,-5.96207 11.4647,-9.72004 20.7994,-22.64053 24.3208,-33.6639 3.6931,-11.56036 2.8705,-25.31688 -2.1084,-35.25854 -0.6686,-1.33541 -1.0142,-2.77903 -0.7678,-3.20802 0.2464,-0.429 0.2168,-0.5711 -0.066,-0.31575 -0.2826,0.25533 -1.0875,-0.61085 -1.7887,-1.92481 -2.5598,-4.79557 -10.1706,-14.18609 -15.9942,-19.73417 -3.2831,-3.1277 -5.8898,-5.93953 -5.7929,-6.24852 0.096,-0.309 -0.086,-0.39951 -0.4073,-0.20116 -0.3209,0.19835 -1.9882,-0.75763 -3.705,-2.12438 -1.717,-1.36678 -5.057,-3.7827 -7.4225,-5.36875 -2.3655,-1.58603 -4.0978,-3.10902 -3.8495,-3.38441 0.2481,-0.27538 0.098,-0.29803 -0.3327,-0.0503 -0.4312,0.24768 -1.5255,-0.0356 -2.4317,-0.62939 -1.5047,-0.98588 -1.6101,-1.33666 -1.2125,-4.03666 0.8404,-5.70656 0.3191,-5.7305 10.2084,0.46896 12.5228,7.85028 21.1835,14.5962 29.8083,23.21817 11.6055,11.60138 18.4598,22.70893 21.2866,34.4946 2.3603,9.84051 0.8705,21.33772 -4.0584,31.32394 -2.9636,6.0044 -6.4173,11.1598 -7.166,10.69703 -0.3388,-0.20946 -0.436,-0.0892 -0.2157,0.26716 0.5051,0.81725 -3.9547,6.10203 -4.74,5.61671 -0.3191,-0.19726 -0.4351,0.0194 -0.2579,0.48169 0.4409,1.14901 -13.5227,14.08542 -19.9779,18.50829 -11.9613,8.19559 -15.9106,10.74677 -22.705,14.66782 -8.9957,5.19135 -22.9859,12.13293 -33.9015,16.82051 -7.7029,3.30809 -8.4441,3.52288 -8.4441,2.44593 z M 328.49447,670.15905 c -0.0123,-1.29452 4.6324,-20.00407 5.09641,-20.52838 0.55513,-0.62725 10.85333,-2.07917 11.33448,-1.59802 0.20396,0.20396 -1.74766,5.01687 -4.33694,10.69532 l -4.70781,10.32447 -3.16406,0.9543 c -3.8453,1.15979 -4.21226,1.17304 -4.22208,0.15242 z m 627.17358,-3.39995 c -10.94751,-2.33564 -47.41246,-8.31954 -68.00977,-11.16039 -56.77912,-7.83122 -109.02062,-12.54472 -172.59096,-15.572 -23.55871,-1.12187 -121.3099,-1.12032 -143.07721,0.002 -34.7171,1.7905 -57.02799,3.36368 -80.39295,5.66869 -5.75209,0.56745 -10.58717,0.90291 -10.74462,0.74546 -0.15752,-0.15752 0.56467,-2.04298 1.60476,-4.19006 1.04005,-2.1471 2.31226,-4.91198 2.82711,-6.1442 0.92292,-2.20889 1.00235,-2.24585 5.64559,-2.62867 19.30306,-1.59145 128.28542,-2.22202 173.77162,-1.00548 116.83925,3.1249 213.4913,12.52548 287.11685,27.92554 5.99893,1.2548 13.0726,2.73263 15.71925,3.28409 2.64666,0.55144 4.90073,1.08348 5.00918,1.18229 0.28162,0.25661 -8.43774,3.54117 -9.19318,3.46308 -0.34542,-0.0357 -3.80396,-0.74249 -7.68567,-1.57065 z"
       id="path6328"
       inkscape:connector-curvature="0"
       sodipodi:nodetypes="cscccssccsssscsssssssssssssscsccccccssscssccccscssccssssssscssssccsscccssssssssscsccsscsssscsssssssssssssssssscssssssssssscscccsssssssscssssssccsscssssscscccsccssssssssccscccsccsscssssccscscssccscsssscssssscssccssssscssscsssssccscsscscccsscccssscsccscccccccsssssccccssscccssscsccsscsssssssscccc" />
  </g>
</svg>
