<svg xmlns="http://www.w3.org/2000/svg" viewBox="0 0 512 512"><g transform="matrix(7.42647 0 0 7.42647-437.82-1509.02)"><path d="m106.52 206.67h2v2h-2z"/><path d="m106.52 266.67h2v2h-2z"/><path d="m66.52 236.67h2v2h-2z"/><g stroke="#000"><g stroke-width="2"><ellipse transform="translate(-62.48-92.33)" cx="160" cy="330" rx="24.814" ry="24.814" fill="none"/><g stroke-miterlimit="10"><g stroke-linecap="square"><path d="m107.52 208.67v14"/><path d="m107.52 256.67v10"/></g><g fill="none" stroke-linejoin="round" stroke-linecap="round"><path d="m107.52 222.67h-15"/><path d="m107.52 252.67h-15"/><path d="m92.52 232.67v10"/><path d="m92.52 247.67v10"/><path d="m92.52 227.67v-10"/><path d="m99.52 237.67h8v19"/></g></g><ellipse transform="translate(-62.48-92.33)" cx="170" cy="345" rx="2" ry="2" fill="none"/><g stroke-miterlimit="10"><path d="m68.52 237.67h15" stroke-linecap="square"/><path d="m84.52 222.67v30" fill="none" stroke-linecap="round"/></g></g><path d="m99.52 233.67l-6 4 6 4z" stroke-miterlimit="10" stroke-linejoin="round" stroke-linecap="round" stroke-width="1"/></g></g></svg>